# xmcd CD database file
#
# Track frame offsets:
#	150
#	1077
#	15967
#	34150
#	35552
#	50577
#	70910
#	90772
#	113077
#	129370
#	147515
#	161372
#	180942
#	183620
#	190422
#	192437
#	194360
#
# Disc length: 2619 seconds
#
# Revision: 4
# Processed by: cddbd v1.4PL0 Copyright (c) Steve Scherf et al.
# Submitted via: CDex 1.40Release
#
DISCID=da0a3911
DTITLE=戴佩妮 - 怎樣
DYEAR=2001
DGENRE=Rock
TTITLE0=Di Da...Excuse Me
TTITLE1=日期
TTITLE2=你要的愛
TTITLE3=Thunder
TTITLE4=雨和太陽
TTITLE5=怎樣
TTITLE6=好感覺
TTITLE7=遇見你的第4天
TTITLE8=醒了兩年 睡了兩年
TTITLE9=我有想法
TTITLE10=簡單
TTITLE11=忽然
TTITLE12=Andy Peterson solo
TTITLE13=Jamie Wilson solo
TTITLE14=李守信solo
TTITLE15=黃中岳solo
TTITLE16=吳慶隆solo
EXTD=\n YEAR: 2001 ID3G: 17
EXTT0=
EXTT1=
EXTT2=
EXTT3=
EXTT4=
EXTT5=
EXTT6=
EXTT7=
EXTT8=
EXTT9=
EXTT10=
EXTT11=
EXTT12=
EXTT13=
EXTT14=
EXTT15=
EXTT16=
PLAYORDER=
